PathFileType	4	(X/Y/Z)	C:/Users/opensim2020/Desktop/walking_exp_matlab/subject06_walking13_straight_03_cyclic.trc																																																																																																																																																				
DataRate	CameraRate	NumFrames	NumMarkers	Units	OrigDataRate	OrigDataStartFrame	OrigNumFrames																																																																																																																																																
100	100	5	50	mm	100	2263	111																																																																																																																																																
Frame#	Time	LFHD			RFHD			LBHD			RBHD			C7			T10			CLAV			STRN			RBAK			LSHO			LUPA			LELB			LFRM			LWRA			LWRB			LFIN			RSHO			RUPA			RELB			RFRM			RWRA			RWRB			RFIN			LASI			RASI			LPSI			RPSI			LTHI			LKNE			LTIB			LANK			LHEE			LTOE			RTHI			RKNE			RTIB			RANK			RHEE			RTOE			*39			*40			*41			*42			*43			*44			*45			*46			*47			*48			*49		
		X1	Y1	Z1	X2	Y2	Z2	X3	Y3	Z3	X4	Y4	Z4	X5	Y5	Z5	X6	Y6	Z6	X7	Y7	Z7	X8	Y8	Z8	X9	Y9	Z9	X10	Y10	Z10	X11	Y11	Z11	X12	Y12	Z12	X13	Y13	Z13	X14	Y14	Z14	X15	Y15	Z15	X16	Y16	Z16	X17	Y17	Z17	X18	Y18	Z18	X19	Y19	Z19	X20	Y20	Z20	X21	Y21	Z21	X22	Y22	Z22	X23	Y23	Z23	X24	Y24	Z24	X25	Y25	Z25	X26	Y26	Z26	X27	Y27	Z27	X28	Y28	Z28	X29	Y29	Z29	X30	Y30	Z30	X31	Y31	Z31	X32	Y32	Z32	X33	Y33	Z33	X34	Y34	Z34	X35	Y35	Z35	X36	Y36	Z36	X37	Y37	Z37	X38	Y38	Z38	X39	Y39	Z39	X40	Y40	Z40	X41	Y41	Z41	X42	Y42	Z42	X43	Y43	Z43	X44	Y44	Z44	X45	Y45	Z45	X46	Y46	Z46	X47	Y47	Z47	X48	Y48	Z48	X49	Y49	Z49	X50	Y50	Z50
																																																																																																																																																							
56	0.55	79.53064	1644.54565	-1064.76575	64.54319	1632.31982	-933.74841	-54.49464	1596.01807	-1080.74353	-67.49961	1588.81433	-952.24762	-66.94717	1435.79858	-1022.67572	-106.55818	1105.85535	-1009.41028	42.25954	1357.24585	-1013.3927	83.22584	1184.06165	-1015.06146	-148.63834	1265.42883	-942.22717	-3.63124	1386.19788	-1180.06165	-54.07932	1190.4563	-1243.20825	-96.02299	1085.13428	-1248.89294	-123.1684	937.59283	-1272.34033	-97.16586	807.83209	-1236.4906	-160.13849	824.63782	-1268.06213	-151.56651	733.49603	-1269.56384	-15.90285	1390.39746	-856.53021	-17.62333	1193.76379	-763.06171	33.69814	1084.1947	-739.01062	108.32526	992.19971	-718.40442	235.80777	913.90228	-748.10449	191.19608	883.68164	-708.80719	265.02414	848.01862	-701.65173	80.20161	956.06567	-1114.49268	68.12028	949.13751	-896.41589	-80.07183	973.90576	-1099.35571	-82.03085	972.28845	-931.06708	74.41192	643.27307	-1189.18225	119.53239	488.38477	-1162.01208	133.54836	231.08202	-1153.75488	165.37988	62.18198	-1110.31323	129.12108	47.20454	-1061.69177	312.63162	40.80244	-1105.95093	-17.55691	612.96729	-851.55225	-31.95704	485.94577	-867.04834	-216.63745	285.5451	-875.16864	-336.45471	143.69188	-921.50378	-379.71307	148.70338	-967.1449	-236.0452	30.22734	-930.56976	-24.83393	1686.6781	-1016.4256	NaN	NaN	NaN	NaN	NaN	NaN	NaN	NaN	NaN	NaN	NaN	NaN	NaN	NaN	NaN	NaN	NaN	NaN	NaN	NaN	NaN	NaN	NaN	NaN	NaN	NaN	NaN	NaN	NaN	NaN
57	0.56	90.38084	1645.7157	-1066.03711	75.56635	1634.35925	-935.1521	-43.51061	1597.8374	-1081.96716	-56.56028	1590.99646	-953.4939	-56.02105	1437.44238	-1023.91992	-95.19922	1107.79041	-1010.65027	53.1997	1359.18774	-1014.35388	94.68791	1186.2146	-1015.87036	-137.48103	1267.44641	-943.44806	8.25895	1388.38391	-1180.96362	-40.16609	1192.10742	-1244.59155	-80.94425	1086.45959	-1250.67712	-106.31538	938.6676	-1274.34277	-79.77322	809.16656	-1237.54858	-141.97969	825.33795	-1270.59753	-133.02135	734.23816	-1270.85291	-5.40467	1392.3396	-857.80579	-8.1327	1195.43628	-765.20221	42.31036	1085.3092	-741.39923	115.16785	991.83673	-720.47504	241.22179	910.78284	-749.53265	195.78072	881.38208	-710.57178	268.95102	844.21948	-702.95227	92.02853	958.90033	-1115.87988	80.0469	951.14764	-898.17719	-68.10587	976.28448	-1100.10999	-69.96081	973.76294	-932.24103	85.44567	645.71558	-1190.73865	128.60686	489.93115	-1163.81763	138.08318	231.76581	-1155.54883	166.35571	62.29905	-1110.98865	129.13507	47.45782	-1063.01636	313.47464	39.70762	-1103.94116	-1.34881	613.73657	-851.03607	-12.80469	486.39005	-864.8902	-201.35814	290.96082	-874.82288	-325.4115	153.70801	-921.52673	-366.46405	161.25955	-968.2627	-235.40289	30.85732	-930.72296	-13.69458	1688.6344	-1017.94623	NaN	NaN	NaN	NaN	NaN	NaN	NaN	NaN	NaN	NaN	NaN	NaN	NaN	NaN	NaN	NaN	NaN	NaN	NaN	NaN	NaN	NaN	NaN	NaN	NaN	NaN	NaN	NaN	NaN	NaN
58	0.57	101.46107	1647.38025	-1067.4762	86.81947	1636.36877	-936.52734	-32.65728	1599.65662	-1083.13428	-45.63499	1593.24927	-954.67078	-45.22056	1439.0343	-1025.09705	-83.9066	1109.67285	-1011.914	64.04971	1361.1377	-1015.22876	106.12911	1188.38403	-1016.6626	-126.59163	1269.02637	-944.68701	20.00868	1390.65491	-1181.77979	-26.27942	1194.00427	-1246.05298	-65.72379	1087.99402	-1252.61206	-88.86988	939.84845	-1276.44336	-61.47037	810.68182	-1238.71423	-123.00642	826.13007	-1273.25647	-113.68439	734.85052	-1272.54614	4.96845	1394.23657	-859.13843	1.73657	1197.33716	-766.86829	50.64696	1086.41541	-743.77301	121.67648	991.38727	-722.5238	245.91505	907.34027	-751.05621	199.83162	879.0918	-712.33246	272.06534	839.9751	-704.46417	103.53436	961.46729	-1117.45459	91.68536	953.25171	-899.94891	-56.28376	978.71649	-1100.96851	-58.03751	975.24139	-933.50049	95.65619	647.80505	-1192.05322	136.71858	491.2175	-1165.42908	142.40936	232.66214	-1156.76379	167.1254	62.40358	-1111.427	129.01488	47.61708	-1064.09778	314.11801	39.09972	-1102.35583	15.23945	614.45966	-850.31787	7.15976	486.76187	-862.6488	-184.83986	296.7142	-874.35425	-312.57846	163.69298	-921.55707	-351.57855	173.82013	-969.27118	-232.99458	32.86355	-930.38007	-2.51299	1690.59058	-1019.41699	NaN	NaN	NaN	NaN	NaN	NaN	NaN	NaN	NaN	NaN	NaN	NaN	NaN	NaN	NaN	NaN	NaN	NaN	NaN	NaN	NaN	NaN	NaN	NaN	NaN	NaN	NaN	NaN	NaN	NaN
59	0.58	112.35722	1648.25525	-1068.82629	97.73029	1638.04065	-937.97516	-21.88977	1601.33118	-1084.19385	-34.7603	1595.45813	-955.72144	-34.45479	1440.49622	-1026.18298	-72.75444	1111.38647	-1013.25592	74.81316	1362.90918	-1016.1449	117.61825	1190.4895	-1017.55591	-115.62523	1270.46545	-945.86633	31.59527	1392.97351	-1182.50293	-12.40544	1196.02844	-1247.59717	-50.54754	1089.57214	-1254.66357	-71.13443	941.01959	-1278.6073	-42.75868	812.23627	-1240.12305	-103.31382	826.87134	-1276.01489	-92.99137	735.52661	-1273.93396	15.19142	1395.90442	-860.49915	11.70449	1199.07239	-768.12726	58.66538	1087.34961	-746.06628	127.74016	990.79742	-724.51837	250.45459	903.84821	-752.4978	203.23663	876.48273	-713.90826	274.97546	835.57892	-706.25281	114.91135	963.73297	-1118.91272	102.8009	955.07727	-901.64349	-44.43444	980.96149	-1101.91382	-46.43893	976.59473	-934.78845	104.84486	649.38251	-1193.26709	143.8439	491.93054	-1166.64771	146.18579	233.43134	-1157.33044	167.50586	62.46987	-1111.44739	129.04008	47.71561	-1064.42236	314.25867	38.35565	-1101.57166	31.99774	615.01208	-849.42035	27.67489	487.01825	-860.50037	-166.80647	302.48022	-873.67114	-298.24536	173.63126	-921.53601	-336.07578	186.37198	-969.66302	-228.05032	36.52602	-929.95056	8.75465	1692.41101	-1020.91058	NaN	NaN	NaN	NaN	NaN	NaN	NaN	NaN	NaN	NaN	NaN	NaN	NaN	NaN	NaN	NaN	NaN	NaN	NaN	NaN	NaN	NaN	NaN	NaN	NaN	NaN	NaN	NaN	NaN	NaN
60	0.59	123.28513	1649.23145	-1070.25879	108.82279	1639.29797	-939.2085	-11.24928	1602.8092	-1085.19873	-23.87601	1597.38391	-956.6839	-23.68304	1441.67688	-1027.198	-61.59821	1112.78906	-1014.62933	85.55927	1364.44238	-1017.00592	128.91817	1192.28125	-1018.35492	-104.85539	1271.71155	-947.04034	43.22893	1395.14893	-1183.19519	1.33387	1197.94275	-1249.32642	-35.2625	1090.97644	-1256.86633	-53.13732	942.10315	-1280.94727	-22.76016	813.97015	-1241.63037	-83.13071	827.4093	-1278.75879	-71.63091	736.08447	-1275.7229	25.21113	1397.29529	-861.82178	21.31875	1200.62305	-769.43964	66.53793	1087.97119	-748.1662	133.60518	989.86346	-726.4173	254.72708	900.14545	-753.87573	206.53041	873.90033	-715.46393	277.36026	830.76965	-707.89313	126.25795	965.54584	-1120.26038	113.72592	956.62128	-903.16974	-32.81796	982.92407	-1102.96802	-35.31992	977.58246	-936.13953	113.17759	650.48334	-1194.18921	149.97993	492.12918	-1167.75208	148.82246	233.51654	-1157.44202	167.94243	62.52744	-1111.09692	129.21352	47.95427	-1064.25244	314.55713	37.81676	-1101.24597	48.62243	615.36609	-848.4397	48.02919	487.2327	-858.54248	-147.78072	307.91003	-872.50995	-282.51083	183.81195	-921.80499	-319.27734	199.24442	-969.92865	-221.96021	41.1542	-929.27545	19.89562	1693.87524	-1022.24811	NaN	NaN	NaN	NaN	NaN	NaN	NaN	NaN	NaN	NaN	NaN	NaN	NaN	NaN	NaN	NaN	NaN	NaN	NaN	NaN	NaN	NaN	NaN	NaN	NaN	NaN	NaN	NaN	NaN	NaN
